<svg width="512" height="512" viewBox="0 0 512 512" xmlns="http://www.w3.org/2000/svg" role="img" aria-label="Figma">
  <rect width="512" height="512" rx="96" fill="#ffffff"/>
  <path d="M256 256a86 86 0 1 1 86 86h-86v-86Z" fill="#1ABCFE"/>
  <path d="M170 428a86 86 0 0 0 86-86v-86h-86a86 86 0 1 0 0 172Z" fill="#0ACF83"/>
  <path d="M170 256h86V84h-86a86 86 0 0 0 0 172Z" fill="#A259FF"/>
  <path d="M256 84v172h86a86 86 0 0 0 0-172h-86Z" fill="#FF7262"/>
  <path d="M170 84a86 86 0 0 0 0 172h86V84h-86Z" fill="#F24E1E"/>
</svg>
