<svg width="512" height="512" viewBox="0 0 512 512" xmlns="http://www.w3.org/2000/svg" role="img" aria-label="GitHub">
  <rect width="512" height="512" rx="96" fill="#ffffff"/>
  <path fill="#0B1220" d="M256 56C143.6 56 52 147.6 52 260c0 90.2 58.4 166.6 139.4 193.6 10.2 1.8 14-4.4 14-9.8 0-4.8-.2-20.8-.2-37.8-56.7 12.4-68.7-24.1-68.7-24.1-9.3-23.6-22.7-29.9-22.7-29.9-18.5-12.7 1.4-12.4 1.4-12.4 20.5 1.4 31.3 21.1 31.3 21.1 18.2 31.2 47.7 22.2 59.3 17 1.8-13.2 7.1-22.2 13-27.3-45.3-5.2-92.9-22.7-92.9-100.9 0-22.3 8-40.5 21-54.8-2.1-5.2-9.1-26 2-54 0 0 17.1-5.5 56.1 20.9 16.3-4.5 33.7-6.8 51-6.9 17.3.1 34.8 2.4 51.1 6.9 38.9-26.4 56-20.9 56-20.9 11.1 28 4.1 48.8 2 54 13.1 14.3 21 32.5 21 54.8 0 78.5-47.7 95.6-93.2 100.7 7.3 6.3 13.8 18.7 13.8 37.8 0 27.3-.2 49.3-.2 56 0 5.4 3.7 11.7 14.1 9.7C401.6 426.5 460 350.1 460 260 460 147.6 368.4 56 256 56Z"/>
</svg>
