<svg width="512" height="512" viewBox="58 128 448 282" fill="none" xmlns="http://www.w3.org/2000/svg">
  <g filter="url(#glow)">
    <path d="M78 341V160H134L216 270L298 160H352V341H295V246L228 333H205L136 246V341H78Z" fill="url(#paint0_linear)"/>
    <path d="M304 341V160H405C448 160 476 183 476 220C476 241 466 257 447 267C472 276 486 294 486 320C486 358 457 381 410 381H336V337H404C419 337 429 329 429 317C429 305 419 298 404 298H336V255H393C407 255 416 248 416 237C416 225 407 218 393 218H360V341H304Z" fill="url(#paint1_linear)"/>
  </g>
  <defs>
    <filter id="glow" x="38" y="120" width="488" height="301" filterUnits="userSpaceOnUse" color-interpolation-filters="sRGB">
      <feFlood flood-opacity="0" result="BackgroundImageFix"/>
      <feColorMatrix in="SourceAlpha" type="matrix" values="0 0 0 0 0 0 0 0 0 0 0 0 0 0 0 0 0 0 127 0" result="hardAlpha"/>
      <feOffset/>
      <feGaussianBlur stdDeviation="18"/>
      <feComposite in2="hardAlpha" operator="out"/>
      <feColorMatrix type="matrix" values="0 0 0 0 0.145 0 0 0 0 0.388 0 0 0 0 0.922 0 0 0 0.75 0"/>
      <feBlend mode="normal" in2="BackgroundImageFix" result="effect1_dropShadow"/>
      <feBlend mode="normal" in="SourceGraphic" in2="effect1_dropShadow" result="shape"/>
    </filter>
    <linearGradient id="paint0_linear" x1="95" y1="159" x2="349" y2="369" gradientUnits="userSpaceOnUse">
      <stop stop-color="#60A5FA"/>
      <stop offset="0.48" stop-color="#2563EB"/>
      <stop offset="1" stop-color="#22D3EE"/>
    </linearGradient>
    <linearGradient id="paint1_linear" x1="301" y1="165" x2="491" y2="357" gradientUnits="userSpaceOnUse">
      <stop stop-color="#67E8F9"/>
      <stop offset="0.58" stop-color="#3B82F6"/>
      <stop offset="1" stop-color="#22D3EE"/>
    </linearGradient>
  </defs>
</svg>
